<svg width="26" height="26" viewBox="0 0 26 26" fill="none" xmlns="http://www.w3.org/2000/svg">
<path d="M15.7049 5.50603L17.2303 4.01916C17.339 3.91335 17.4158 3.77923 17.4522 3.632C17.4886 3.48476 17.4831 3.33028 17.4362 3.18603C17.3894 3.04178 17.3031 2.91353 17.1871 2.81578C17.0711 2.71804 16.9301 2.65471 16.78 2.63295L14.6714 2.32672L13.7288 0.415962C13.654 0.289257 13.5474 0.184253 13.4196 0.111309C13.2918 0.0383645 13.1472 0 13 0C12.8529 0 12.7083 0.0383645 12.5805 0.111309C12.4526 0.184253 12.3461 0.289257 12.2712 0.415962L11.3287 2.32664L9.22012 2.63287C9.07002 2.65462 8.92901 2.71796 8.81304 2.8157C8.69707 2.91345 8.61077 3.0417 8.56392 3.18595C8.51706 3.3302 8.51151 3.48468 8.54791 3.63192C8.5843 3.77915 8.66117 3.91326 8.76983 4.01907L10.2952 5.50595L9.93496 7.60618C9.9093 7.75563 9.92597 7.90929 9.9831 8.04976C10.0402 8.19023 10.1355 8.3119 10.2582 8.40103C10.3809 8.49015 10.5261 8.54316 10.6773 8.55406C10.8286 8.56497 10.9799 8.53333 11.1141 8.46272L13 7.47098L14.8861 8.4628C15.0203 8.53341 15.1716 8.56505 15.3228 8.55415C15.4741 8.54324 15.6192 8.49023 15.7419 8.40111C15.8646 8.31199 15.9599 8.19031 16.017 8.04984C16.0742 7.90937 16.0908 7.75572 16.0652 7.60626L15.7049 5.50603Z" fill="#252525"/>
<path d="M25.9604 5.58759C25.9135 5.44337 25.8272 5.31515 25.7112 5.21741C25.5953 5.11968 25.4543 5.05632 25.3042 5.03452L23.196 4.72821L22.2526 2.81761C22.1778 2.69084 22.0713 2.58576 21.9435 2.51276C21.8157 2.43976 21.6711 2.40137 21.5239 2.40137C21.3768 2.40137 21.2322 2.43976 21.1044 2.51276C20.9766 2.58576 20.8701 2.69084 20.7953 2.81761L19.8528 4.72821L17.7446 5.03452C17.5946 5.05627 17.4536 5.11957 17.3377 5.21726C17.2217 5.31496 17.1354 5.44314 17.0885 5.58733C17.0416 5.73151 17.036 5.88594 17.0723 6.03315C17.1086 6.18035 17.1854 6.31447 17.294 6.42032L18.8197 7.90719L18.4595 10.0075C18.4338 10.1569 18.4504 10.3106 18.5075 10.451C18.5646 10.5915 18.6598 10.7132 18.7824 10.8024C18.9051 10.8915 19.0502 10.9446 19.2015 10.9556C19.3527 10.9665 19.504 10.935 19.6382 10.8645L21.5238 9.8732L23.4099 10.8645C23.5441 10.9351 23.6954 10.9667 23.8466 10.9558C23.9979 10.9449 24.143 10.8919 24.2657 10.8028C24.3884 10.7136 24.4837 10.592 24.5408 10.4515C24.598 10.311 24.6146 10.1574 24.589 10.0079L24.2288 7.9076L25.7543 6.42073C25.863 6.31494 25.9399 6.18084 25.9763 6.0336C26.0127 5.88635 26.0072 5.73186 25.9604 5.58759Z" fill="#252525"/>
<path d="M8.25554 5.03459L6.14735 4.72828L5.20485 2.81768C5.13775 2.68173 5.03396 2.56725 4.9052 2.48721C4.77644 2.40717 4.62785 2.36475 4.47624 2.36475C4.32462 2.36475 4.17604 2.40717 4.04728 2.48721C3.91852 2.56725 3.81472 2.68173 3.74763 2.81768L2.80415 4.72828L0.695877 5.03459C0.545795 5.05636 0.404801 5.11969 0.288846 5.21743C0.172892 5.31517 0.0866061 5.44341 0.0397516 5.58765C-0.00710291 5.73188 -0.0126558 5.88635 0.0237211 6.03357C0.0600979 6.1808 0.136953 6.3149 0.245589 6.42072L1.7713 7.90767L1.41104 10.008C1.38538 10.1574 1.40206 10.3111 1.45918 10.4516C1.51631 10.592 1.61161 10.7137 1.73429 10.8028C1.85698 10.892 2.00216 10.945 2.15341 10.9559C2.30466 10.9668 2.45594 10.9351 2.59014 10.8645L4.4762 9.87327L6.36185 10.8645C6.49605 10.9351 6.64733 10.9668 6.79858 10.9559C6.94982 10.945 7.095 10.892 7.21769 10.8028C7.34038 10.7137 7.43568 10.592 7.4928 10.4516C7.54993 10.3111 7.56661 10.1574 7.54095 10.008L7.18068 7.90767L8.70648 6.4208C8.81503 6.31494 8.89179 6.18083 8.92809 6.03362C8.96439 5.88642 8.95878 5.73199 8.91189 5.5878C8.865 5.44362 8.7787 5.31543 8.66275 5.21774C8.5468 5.12005 8.40559 5.05634 8.25554 5.03459Z" fill="#252525"/>
<path d="M21.125 12.1504H4.875C4.22875 12.1511 3.60918 12.4081 3.15221 12.8651C2.69524 13.3221 2.43821 13.9416 2.4375 14.5879V21.0879C2.43821 21.7341 2.69524 22.3537 3.15221 22.8107C3.60918 23.2676 4.22875 23.5247 4.875 23.5254H10.226L12.4256 25.7248C12.501 25.8003 12.5905 25.8602 12.6891 25.901C12.7877 25.9419 12.8933 25.9629 13 25.9629C13.1067 25.9629 13.2123 25.9419 13.3109 25.901C13.4095 25.8602 13.499 25.8003 13.5744 25.7248L15.774 23.5254H21.125C21.7712 23.5247 22.3908 23.2676 22.8478 22.8107C23.3048 22.3537 23.5618 21.7341 23.5625 21.0879V14.5879C23.5618 13.9416 23.3048 13.3221 22.8478 12.8651C22.3908 12.4081 21.7712 12.1511 21.125 12.1504ZM19.5 20.2754H6.5C6.28451 20.2754 6.07785 20.1898 5.92548 20.0374C5.7731 19.885 5.6875 19.6784 5.6875 19.4629C5.6875 19.2474 5.7731 19.0407 5.92548 18.8884C6.07785 18.736 6.28451 18.6504 6.5 18.6504H19.5C19.7155 18.6504 19.9222 18.736 20.0745 18.8884C20.2269 19.0407 20.3125 19.2474 20.3125 19.4629C20.3125 19.6784 20.2269 19.885 20.0745 20.0374C19.9222 20.1898 19.7155 20.2754 19.5 20.2754ZM19.5 17.0254H6.5C6.28451 17.0254 6.07785 16.9398 5.92548 16.7874C5.7731 16.635 5.6875 16.4284 5.6875 16.2129C5.6875 15.9974 5.7731 15.7907 5.92548 15.6384C6.07785 15.486 6.28451 15.4004 6.5 15.4004H19.5C19.7155 15.4004 19.9222 15.486 20.0745 15.6384C20.2269 15.7907 20.3125 15.9974 20.3125 16.2129C20.3125 16.4284 20.2269 16.635 20.0745 16.7874C19.9222 16.9398 19.7155 17.0254 19.5 17.0254Z" fill="#252525"/>
</svg>
