<svg width="29" height="29" viewBox="0 0 29 29" fill="none" xmlns="http://www.w3.org/2000/svg">
<path d="M11.1351 20.4304C11.5602 21.2986 11.7813 22.2529 11.7813 23.219V27.1874H5.43754V23.5624L2.73148 20.5274C2.10888 19.8296 1.78082 18.917 1.81435 17.9826L2.12701 9.42855C2.12157 8.78058 2.60732 8.23411 3.25076 8.16433C3.90507 8.09273 4.51951 8.53498 4.62644 9.18476C4.79138 10.1853 4.98351 12.8179 5.08229 14.2797C4.58748 15.0074 4.44066 15.9535 4.77779 16.8199L5.5771 18.8744C5.71032 19.216 6.09819 19.3982 6.45707 19.2614C6.80688 19.1254 6.97998 18.7312 6.84404 18.3805C6.89388 18.5092 6.10816 16.49 6.04473 16.3269C5.79369 15.6799 6.07373 14.8987 6.72985 14.5788C7.40229 14.2498 8.25416 14.5452 8.58223 15.215L11.1351 20.4304Z" fill="#252525"/>
<path d="M27.1848 17.9829C27.2192 18.9172 26.8903 19.8298 26.2677 20.5276L23.5625 23.5627V27.1877H17.2188V23.2192C17.2188 22.2522 17.4399 21.2989 17.8649 20.4307L20.4178 15.2143C20.7459 14.5446 21.5977 14.2491 22.2702 14.5781C22.8946 14.8817 23.1918 15.613 22.9725 16.2655C22.9091 16.4531 22.1207 18.4705 22.156 18.3798C22.0201 18.7305 22.1932 19.1239 22.543 19.2607C22.9018 19.3985 23.2897 19.2163 23.4229 18.8737L24.2223 16.8193C24.5585 15.9538 24.4117 15.0068 23.9178 14.279C24.0165 12.8173 24.2087 10.1846 24.3736 9.18411C24.4805 8.53433 25.095 8.09298 25.7493 8.16367C26.3927 8.23436 26.8785 8.78083 26.873 9.42789L27.1848 17.9829Z" fill="#252525"/>
<path d="M21.508 6.66565L19.9873 6.4989C19.8831 6.48712 19.7979 6.41734 19.7635 6.31856C19.5297 5.64612 19.1889 5.05525 18.7231 4.51603C18.6552 4.43719 18.637 4.32753 18.6787 4.23237L19.295 2.83222C19.3512 2.70534 19.3022 2.55672 19.1817 2.48694L17.0683 1.26712C16.9478 1.19734 16.7955 1.22997 16.7131 1.34144L15.805 2.58119C15.7434 2.66456 15.641 2.70353 15.5386 2.68359C14.8571 2.55309 14.1511 2.54584 13.456 2.67725C13.3545 2.69628 13.2512 2.65822 13.1905 2.57484L12.2869 1.34144C12.2045 1.22997 12.0522 1.19734 11.9317 1.26712L9.81831 2.48694C9.69778 2.55672 9.64975 2.70534 9.70503 2.83222L10.3213 4.23147C10.363 4.32572 10.3439 4.43447 10.2769 4.5124C9.81469 5.0489 9.4685 5.66425 9.24103 6.31856C9.20659 6.41644 9.12231 6.48622 9.019 6.498L7.49197 6.66565C7.35422 6.68106 7.25 6.79797 7.25 6.93662V9.37715C7.25 9.51581 7.35422 9.63272 7.49197 9.64722L9.01266 9.81397C9.11687 9.82575 9.20206 9.89553 9.2365 9.99431C9.47031 10.6667 9.81106 11.2576 10.2769 11.7968C10.3448 11.8757 10.363 11.9853 10.3213 12.0805L9.70503 13.4807C9.64884 13.6075 9.69778 13.7562 9.81831 13.8259L11.9317 15.0457C12.0522 15.1155 12.2045 15.0829 12.2869 14.9714L13.195 13.7326C13.2566 13.6492 13.359 13.6102 13.4614 13.6302C14.1429 13.7607 14.8489 13.7679 15.544 13.6365C15.6455 13.6175 15.7488 13.6556 15.8095 13.7389L16.7131 14.9723C16.7946 15.0838 16.9478 15.1164 17.0683 15.0467L19.1817 13.8268C19.3022 13.7571 19.3503 13.6084 19.295 13.4816L18.6787 12.0823C18.637 11.9881 18.6561 11.8793 18.7231 11.8014C19.1853 11.2649 19.5315 10.6495 19.759 9.99522C19.7934 9.89734 19.8777 9.82756 19.981 9.81578L21.508 9.64903C21.6458 9.63181 21.75 9.5149 21.75 9.37625V6.93662C21.75 6.79797 21.6458 6.68106 21.508 6.66565ZM14.5 10.8752C12.9983 10.8752 11.7812 9.65809 11.7812 8.15644C11.7812 6.65478 12.9983 5.43769 14.5 5.43769C16.0017 5.43769 17.2188 6.65478 17.2188 8.15644C17.2188 9.65809 16.0017 10.8752 14.5 10.8752Z" fill="#252525"/>
</svg>
