<svg width="22" height="25" viewBox="0 0 22 25" fill="none" xmlns="http://www.w3.org/2000/svg">
<path d="M18.1458 0H2.97917C2.18904 0 1.43128 0.325948 0.872578 0.906139C0.313876 1.48633 0 2.27324 0 3.09375V21.0938C0 21.9143 0.313876 22.7012 0.872578 23.2814C1.43128 23.8616 2.18904 24.1875 2.97917 24.1875H18.1458C18.936 24.1875 19.6937 23.8616 20.2524 23.2814C20.8111 22.7012 21.125 21.9143 21.125 21.0938V3.09375C21.125 2.27324 20.8111 1.48633 20.2524 0.906139C19.6937 0.325948 18.936 0 18.1458 0ZM8.97 17.4713L6.22917 20.2838C6.07682 20.4418 5.87031 20.5305 5.655 20.5305C5.43969 20.5305 5.23318 20.4418 5.08083 20.2838L3.45583 18.5963C3.31231 18.4363 3.23418 18.2248 3.23789 18.0062C3.24161 17.7876 3.32688 17.579 3.47574 17.4244C3.62461 17.2698 3.82544 17.1813 4.03593 17.1774C4.24643 17.1736 4.45014 17.2547 4.60417 17.4038L5.6875 18.5288L7.85417 16.2788C7.92855 16.1959 8.01825 16.1294 8.11792 16.0832C8.21758 16.0371 8.32517 16.0123 8.43427 16.0103C8.54336 16.0083 8.65173 16.0292 8.7529 16.0716C8.85407 16.114 8.94597 16.1772 9.02313 16.2573C9.10028 16.3375 9.1611 16.4329 9.20197 16.538C9.24283 16.643 9.2629 16.7555 9.26097 16.8688C9.25905 16.9821 9.23517 17.0939 9.19076 17.1974C9.14635 17.3009 9.08233 17.394 9.0025 17.4713H8.97ZM8.97 11.2838L6.22917 14.0963C6.07682 14.2543 5.87031 14.343 5.655 14.343C5.43969 14.343 5.23318 14.2543 5.08083 14.0963L3.45583 12.4088C3.31231 12.2488 3.23418 12.0373 3.23789 11.8187C3.24161 11.6001 3.32688 11.3915 3.47574 11.2369C3.62461 11.0823 3.82544 10.9938 4.03593 10.9899C4.24643 10.9861 4.45014 11.0672 4.60417 11.2163L5.6875 12.3413L7.85417 10.0913C8.00819 9.94221 8.21191 9.86107 8.4224 9.86493C8.63289 9.86879 8.83373 9.95734 8.98259 10.1119C9.13146 10.2665 9.21673 10.4751 9.22044 10.6937C9.22415 10.9123 9.14602 11.1238 9.0025 11.2838H8.97ZM8.97 5.09625L6.22917 7.90875C6.0802 8.04711 5.88736 8.12361 5.6875 8.12361C5.48764 8.12361 5.2948 8.04711 5.14583 7.90875L3.52083 6.22125C3.40831 6.0604 3.35409 5.86346 3.36774 5.66515C3.38139 5.46684 3.46204 5.27991 3.59546 5.13733C3.72888 4.99474 3.9065 4.90566 4.09699 4.8858C4.28748 4.86593 4.47861 4.91656 4.63667 5.02875L5.72 6.15375L7.88667 3.90375C8.04069 3.75471 8.24441 3.67357 8.4549 3.67743C8.66539 3.68129 8.86623 3.76984 9.01509 3.92443C9.16395 4.07902 9.24923 4.28757 9.25294 4.50616C9.25665 4.72475 9.17852 4.9363 9.035 5.09625H8.97ZM17.0625 19.4063H11.6458C11.4303 19.4063 11.2237 19.3174 11.0713 19.1591C10.9189 19.0009 10.8333 18.7863 10.8333 18.5625C10.8333 18.3387 10.9189 18.1241 11.0713 17.9659C11.2237 17.8076 11.4303 17.7188 11.6458 17.7188H17.0625C17.278 17.7188 17.4847 17.8076 17.637 17.9659C17.7894 18.1241 17.875 18.3387 17.875 18.5625C17.875 18.7863 17.7894 19.0009 17.637 19.1591C17.4847 19.3174 17.278 19.4063 17.0625 19.4063ZM17.0625 13.2188H11.6458C11.4303 13.2188 11.2237 13.1299 11.0713 12.9716C10.9189 12.8134 10.8333 12.5988 10.8333 12.375C10.8333 12.1512 10.9189 11.9366 11.0713 11.7784C11.2237 11.6201 11.4303 11.5313 11.6458 11.5313H17.0625C17.278 11.5313 17.4847 11.6201 17.637 11.7784C17.7894 11.9366 17.875 12.1512 17.875 12.375C17.875 12.5988 17.7894 12.8134 17.637 12.9716C17.4847 13.1299 17.278 13.2188 17.0625 13.2188ZM17.0625 7.03125H11.6458C11.4303 7.03125 11.2237 6.94236 11.0713 6.78412C10.9189 6.62589 10.8333 6.41128 10.8333 6.1875C10.8333 5.96372 10.9189 5.74911 11.0713 5.59088C11.2237 5.43265 11.4303 5.34375 11.6458 5.34375H17.0625C17.278 5.34375 17.4847 5.43265 17.637 5.59088C17.7894 5.74911 17.875 5.96372 17.875 6.1875C17.875 6.41128 17.7894 6.62589 17.637 6.78412C17.4847 6.94236 17.278 7.03125 17.0625 7.03125Z" fill="#252525"/>
</svg>
