<svg width="44" height="31" viewBox="0 0 44 31" fill="none" xmlns="http://www.w3.org/2000/svg">
<path d="M20.3801 1.02701C20.4109 0.553341 20.0519 0.144346 19.5783 0.113496C19.1046 0.0826458 18.6956 0.441622 18.6647 0.915293C18.6339 1.38896 18.9929 1.79796 19.4665 1.82881C19.9402 1.85966 20.3492 1.50068 20.3801 1.02701Z" fill="#252525"/>
<path d="M39.8907 12.8517C40.2121 12.5023 40.1894 11.9587 39.84 11.6374C39.4907 11.316 38.9471 11.3387 38.6257 11.6881C38.3044 12.0374 38.3271 12.581 38.6764 12.9024C39.0258 13.2237 39.5694 13.201 39.8907 12.8517Z" fill="#252525"/>
<path d="M4.69919 11.3635C4.22498 11.3832 3.85648 11.7836 3.87625 12.2578C3.89593 12.732 4.29631 13.1005 4.77051 13.0808C5.24472 13.0612 5.61322 12.6608 5.59345 12.1866C5.57377 11.7123 5.17339 11.3439 4.69919 11.3635Z" fill="#252525"/>
<path d="M43.9136 12.8177L37.935 0.485623C37.7275 0.0577398 37.2124 -0.121011 36.7845 0.0864425L31.2234 2.78247C31.0179 2.88208 30.8604 3.05928 30.7855 3.27498C30.7654 3.3329 30.7522 3.39237 30.7449 3.45236H26.2111L23.68 1.52873C23.3014 1.24101 22.7613 1.31466 22.4735 1.6933C22.1857 2.07194 22.2594 2.61215 22.638 2.89986L28.1085 7.05718C28.3398 7.25062 28.5315 7.50637 28.5716 7.8124C28.6103 8.10837 28.5023 8.40399 28.335 8.64461C27.9501 9.19822 27.2234 9.42115 26.6217 9.06786L22.2031 6.47779C21.8603 6.27687 21.4364 6.34063 21.1657 6.606L8.32015 13.906L12.2802 3.64795C13.8336 2.4743 15.6329 2.32718 15.6928 2.32322C16.1646 2.31893 16.5457 1.93504 16.5457 1.46222C16.5457 0.986638 16.1602 0.601123 15.6847 0.601123C15.213 0.601123 13.2126 0.872427 11.4248 2.14052L6.10692 0.0876457C5.66305 -0.0837137 5.1647 0.137232 4.99351 0.580841L0.057778 13.3661C-0.0244642 13.5791 -0.0187063 13.8162 0.0737624 14.0249C0.166231 14.2337 0.337848 14.3973 0.550887 14.4795L5.52358 16.3992C5.30048 17.1071 5.3499 17.8618 5.6664 18.5371C6.15281 19.5796 7.19093 20.2386 8.33571 20.2419C8.29429 20.4535 8.27521 20.6688 8.2832 20.8849C8.29669 21.2504 8.38151 21.6025 8.53534 21.9319C9.01822 22.9639 10.0916 23.5555 11.2557 23.5554C11.2613 23.5554 11.2669 23.5549 11.2724 23.5549C11.196 24.1129 11.2804 24.6819 11.5249 25.2049C11.8927 25.9891 12.5827 26.571 13.417 26.8012C13.7444 26.8918 14.0857 26.9246 14.4243 26.8991C14.3807 27.4129 14.4755 27.934 14.694 28.4009C14.9506 28.9508 15.3636 29.403 15.8864 29.7078C16.7138 30.1937 17.7489 30.2374 18.6164 29.8317L24.1968 27.1809L24.9702 28.0246C25.5454 28.652 26.3334 28.9702 27.1241 28.9702C27.8293 28.9702 28.5367 28.7169 29.0963 28.2039C29.6927 27.6572 30.0096 26.9179 30.0394 26.167C30.0435 26.1672 30.0476 26.1677 30.0516 26.1679C30.095 26.1698 30.1382 26.1707 30.1814 26.1707C30.9134 26.1707 31.6088 25.9008 32.1517 25.403C32.7188 24.8831 33.0522 24.176 33.0938 23.409C33.1264 23.4101 33.1591 23.4112 33.1917 23.4112C33.9237 23.4112 34.6191 23.1412 35.162 22.6435C35.7371 22.1164 36.0724 21.3969 36.1062 20.6175C36.1064 20.6139 36.1063 20.6103 36.1064 20.6067C36.11 20.6069 36.1136 20.6073 36.1172 20.6075C36.1606 20.6093 36.2039 20.6103 36.2471 20.6103C36.9791 20.6103 37.6744 20.3404 38.2174 19.8426C38.7924 19.3155 39.1277 18.596 39.1617 17.8166C39.1856 17.2641 39.0554 16.7286 38.79 16.2586L43.5141 13.9684C43.9423 13.7607 44.121 13.2457 43.9136 12.8177ZM6.28997 2.00431L10.449 3.60988L6.13347 14.7886L1.97444 13.1831L6.28997 2.00431ZM17.8824 28.2739C17.2657 28.5623 16.5207 28.2676 16.2455 27.652C16.1002 27.3272 16.1012 26.9509 16.25 26.6274C16.3904 26.3222 16.6215 26.1648 16.9015 26.0034L20.4703 23.9413C20.8716 23.7096 21.0163 23.181 20.7912 22.7771C20.5662 22.3731 20.041 22.2179 19.6326 22.4369L14.7081 25.077C14.086 25.355 13.3338 25.0626 13.0671 24.4352C12.9304 24.1139 12.9368 23.7458 13.0838 23.429C13.224 23.1271 13.4549 22.9607 13.7358 22.8038L18.7224 20.0098C19.1288 19.7822 19.2795 19.2522 19.056 18.8445C18.8323 18.4365 18.3031 18.2799 17.8932 18.5006L12.0204 21.6635C11.5109 21.8951 10.8422 21.9272 10.3833 21.5634C9.90424 21.1837 9.9216 20.5243 10.2421 20.0484C10.4476 19.7431 10.7287 19.5662 11.0437 19.3929L16.9158 16.1673C17.3231 15.9435 17.4789 15.4167 17.2604 15.0074C17.042 14.5983 16.5171 14.4344 16.1048 14.6483L8.85254 18.4096C8.25063 18.6849 7.52179 18.4163 7.23416 17.8236C7.07535 17.4964 7.06925 17.1121 7.21766 16.7801C7.35774 16.4666 7.59372 16.2992 7.8817 16.136L21.7902 8.23203L25.7503 10.5534C26.8073 11.1738 28.1802 11.0726 29.1316 10.2994C30.0219 9.57583 30.5121 8.37065 30.2109 7.24194C30.0493 6.63626 29.6631 6.07732 29.165 5.6973L28.4772 5.17463H31.4262L34.6707 11.8673C34.2769 11.6461 33.8341 11.518 33.3696 11.4979C32.5906 11.4642 31.8445 11.7357 31.2694 12.2628C30.8765 12.623 30.5958 13.073 30.4464 13.5705C30.1313 13.438 29.792 13.3609 29.4402 13.3456C28.6606 13.3116 27.9151 13.5834 27.34 14.1105C26.7649 14.6376 26.4297 15.3571 26.3958 16.1365C26.3737 16.6441 26.4821 17.1372 26.7055 17.5785C26.2883 17.7032 25.9014 17.9213 25.571 18.2242C24.996 18.7514 24.6607 19.4708 24.6268 20.2502C24.5967 20.9412 24.8074 21.6057 25.2229 22.1483C24.8267 22.2722 24.4508 22.4823 24.125 22.7809C23.2912 23.5452 23.0043 24.6857 23.2838 25.7083L17.8824 28.2739ZM27.9327 26.9344C27.4457 27.3809 26.6862 27.3479 26.2397 26.8609L25.215 25.7432C24.7685 25.2562 24.8016 24.4966 25.2886 24.0501C25.5182 23.8396 25.8084 23.7357 26.0979 23.7357C26.4223 23.7357 26.7457 23.8663 26.9817 24.1237L28.0063 25.2415C28.4528 25.7285 28.4197 26.488 27.9327 26.9344ZM30.9882 24.1335C30.5011 24.58 29.7416 24.5469 29.2952 24.0599L26.6611 21.1865C26.2892 20.7808 26.2447 20.1522 26.5565 19.6983C26.9232 19.1645 27.6727 19.0202 28.2107 19.3819C28.2107 19.3819 31.1481 22.5801 31.2068 22.6346C31.3268 22.8341 31.386 23.0642 31.3757 23.3022C31.3618 23.622 31.2241 23.9172 30.9882 24.1335ZM33.9985 21.3738C33.7626 21.5902 33.4551 21.7014 33.1368 21.6878C32.8988 21.6775 32.6746 21.5984 32.4863 21.4615C32.4371 21.3983 28.4301 17.0728 28.4301 17.0728C27.9893 16.5919 28.0215 15.8205 28.5037 15.3798C28.9861 14.939 29.7548 14.9712 30.1967 15.4534L34.0721 19.6809C34.2884 19.9169 34.3999 20.2229 34.386 20.5427C34.3721 20.8624 34.2345 21.1576 33.9985 21.3738ZM37.054 18.5729C36.5725 19.0143 35.8023 18.9807 35.3611 18.4993L32.3596 15.2251C31.9187 14.7441 31.951 13.9727 32.4332 13.5321C32.9156 13.0914 33.6843 13.1235 34.1262 13.6057L37.1277 16.88C37.5691 17.3614 37.5356 18.1316 37.054 18.5729ZM37.9768 14.739L32.7494 3.95647L36.761 2.0117L41.9883 12.7942L37.9768 14.739Z" fill="#252525"/>
</svg>
