<svg width="44" height="44" viewBox="0 0 44 44" fill="none" xmlns="http://www.w3.org/2000/svg">
<g clip-path="url(#clip0_5456_261)">
<path d="M28.8618 18.2598C28.4831 18.2598 28.1363 18.0073 28.0329 17.6243C27.9091 17.1661 28.18 16.6941 28.6382 16.5706L28.6731 16.5612C29.1323 16.441 29.602 16.7159 29.7218 17.1755C29.842 17.6344 29.5667 18.104 29.1078 18.2239L29.0867 18.2296C29.0118 18.25 28.9363 18.2598 28.8618 18.2598Z" fill="#252525"/>
<path d="M34.6511 26.5098C34.2426 26.5098 33.8394 26.4027 33.4759 26.1929C32.9304 25.878 32.5403 25.3694 32.3771 24.7611C32.2543 24.3026 32.5265 23.8316 32.9851 23.7087C33.4433 23.5855 33.9146 23.8578 34.0375 24.3163C34.0818 24.4812 34.1875 24.6191 34.3356 24.7044C34.4833 24.79 34.6558 24.8125 34.8203 24.7682C34.9855 24.7242 35.1235 24.6185 35.2087 24.4704C35.2943 24.3227 35.3168 24.1502 35.2725 23.9853C35.1496 23.5268 35.4219 23.0558 35.8804 22.933C36.3387 22.8098 36.81 23.082 36.9328 23.5406C37.096 24.1488 37.0121 24.7843 36.6972 25.3298C36.3823 25.8753 35.8737 26.2654 35.2655 26.4285C35.062 26.4829 34.8559 26.5098 34.6511 26.5098Z" fill="#252525"/>
<path d="M27.2175 28.5018C26.809 28.5018 26.4058 28.3944 26.0423 28.1849C25.4968 27.87 25.1067 27.3614 24.9436 26.7528C24.8207 26.2946 25.0929 25.8233 25.5515 25.7004C26.0097 25.5772 26.481 25.8495 26.6039 26.308C26.6482 26.4729 26.7539 26.6108 26.902 26.6961C27.0497 26.7817 27.2219 26.8042 27.3871 26.7599C27.5519 26.7159 27.6899 26.6102 27.7751 26.4621C27.8607 26.3141 27.8832 26.1419 27.8389 25.977C27.716 25.5185 27.9883 25.0475 28.4468 24.9246C28.9051 24.8015 29.3764 25.0737 29.4992 25.5323C29.6624 26.1405 29.5785 26.776 29.2636 27.3215C28.9487 27.867 28.4401 28.2571 27.8319 28.4202C27.6284 28.4749 27.4223 28.5018 27.2175 28.5018Z" fill="#252525"/>
<path d="M32.3933 34.1322C31.781 34.1322 31.1771 33.9717 30.6326 33.6572C29.8155 33.1856 29.2311 32.4239 28.987 31.5125C28.8642 31.0539 29.1361 30.5826 29.5946 30.4597C30.0532 30.3369 30.5242 30.6091 30.647 31.0677C30.7726 31.5353 31.0727 31.9267 31.4923 32.1687C31.9116 32.4108 32.4004 32.4752 32.8683 32.35C33.8344 32.0912 34.4098 31.0945 34.151 30.1284C34.0281 29.6702 34.3 29.1989 34.7586 29.076C35.2168 28.9528 35.6881 29.2254 35.811 29.6836C36.3152 31.5652 35.1947 33.5061 33.3131 34.01C33.009 34.0919 32.7001 34.1322 32.3933 34.1322Z" fill="#252525"/>
<path d="M43.583 25.1972C42.2208 20.1135 37.7782 16.487 32.528 16.1728C32.0533 16.1452 31.6471 16.5058 31.6189 16.9794C31.5907 17.4534 31.9516 17.8603 32.4256 17.8888C36.9356 18.1584 40.7524 21.2743 41.9227 25.642C43.4185 31.2249 40.0935 36.9837 34.5109 38.4796C33.6183 38.7189 32.7136 38.8341 31.8183 38.8341C28.3103 38.8341 24.9423 37.065 22.9916 34.0454C23.8909 32.3458 24.4015 30.4105 24.4015 28.3578C24.4015 26.305 23.8913 24.3697 22.9919 22.6704C23.8144 21.3965 24.9148 20.3028 26.1884 19.4968C26.5892 19.243 26.7087 18.7119 26.455 18.3108C26.2012 17.91 25.6701 17.7905 25.2693 18.0443C24.0064 18.8435 22.8902 19.8852 21.9956 21.0917C19.77 18.0993 16.2083 16.157 12.2008 16.157C5.47314 16.157 0 21.6301 0 28.3578C0 35.0854 5.47314 40.5585 12.2008 40.5585C16.2093 40.5585 19.7723 38.6152 21.9976 35.6212C23.3088 37.3832 25.0981 38.7871 27.1398 39.632C28.6339 40.2504 30.2016 40.5616 31.7807 40.5616C32.8402 40.5616 33.905 40.4216 34.9557 40.1399C41.4537 38.3987 45.3243 31.6952 43.583 25.1972ZM12.2008 38.8394C6.4208 38.8394 1.71875 34.1374 1.71875 28.3578C1.71875 22.5781 6.4208 17.8757 12.2008 17.8757C17.9804 17.8757 22.6824 22.5781 22.6824 28.3578C22.6824 34.1374 17.9804 38.8394 12.2008 38.8394Z" fill="#252525"/>
<path d="M9.8514 27.3943C9.37673 27.3943 8.9917 27.0096 8.9917 26.5349C8.9917 26.1824 8.70501 25.8958 8.35254 25.8958C8.00006 25.8958 7.71338 26.1824 7.71338 26.5349C7.71338 27.0096 7.32867 27.3943 6.854 27.3943C6.37933 27.3943 5.99463 27.0096 5.99463 26.5349C5.99463 25.2348 7.0524 24.177 8.35254 24.177C9.65267 24.177 10.7108 25.2348 10.7108 26.5349C10.7108 27.0096 10.3257 27.3943 9.8514 27.3943Z" fill="#252525"/>
<path d="M17.5472 27.3943C17.0725 27.3943 16.6878 27.0096 16.6878 26.5349C16.6878 26.1824 16.4011 25.8958 16.0487 25.8958C15.6962 25.8958 15.4095 26.1824 15.4095 26.5349C15.4095 27.0096 15.0245 27.3943 14.5501 27.3943C14.0755 27.3943 13.6904 27.0096 13.6904 26.5349C13.6904 25.2348 14.7485 24.177 16.0487 24.177C17.3488 24.177 18.4066 25.2348 18.4066 26.5349C18.4066 27.0096 18.0219 27.3943 17.5472 27.3943Z" fill="#252525"/>
<path d="M12.201 34.2124C10.2529 34.2124 8.66846 32.628 8.66846 30.6799C8.66846 30.2056 9.05316 29.8206 9.52783 29.8206C10.0025 29.8206 10.3872 30.2056 10.3872 30.6799C10.3872 31.6803 11.2009 32.4937 12.201 32.4937C13.201 32.4937 14.0147 31.68 14.0147 30.6799C14.0147 30.2056 14.3994 29.8206 14.8741 29.8206C15.3487 29.8206 15.7335 30.2056 15.7335 30.6799C15.7335 32.628 14.1486 34.2124 12.201 34.2124Z" fill="#252525"/>
<path d="M22.0142 9.25909C21.5395 9.25909 21.1548 8.87405 21.1548 8.39972V4.29688C21.1548 3.8222 21.5395 3.4375 22.0142 3.4375C22.4888 3.4375 22.8735 3.8222 22.8735 4.29688V8.39972C22.8735 8.87439 22.4888 9.25909 22.0142 9.25909Z" fill="#252525"/>
<path d="M22.014 12.8882C21.7877 12.8882 21.5668 12.7962 21.4064 12.6364C21.2462 12.4766 21.1553 12.2551 21.1553 12.0288C21.1553 11.8029 21.2462 11.581 21.4064 11.4212C21.5668 11.2614 21.7877 11.1694 22.014 11.1694C22.2406 11.1694 22.4615 11.2614 22.6216 11.4212C22.782 11.581 22.8733 11.8029 22.8733 12.0288C22.8733 12.2551 22.782 12.4766 22.6216 12.6364C22.4615 12.7962 22.2406 12.8882 22.014 12.8882Z" fill="#252525"/>
<path d="M17.5807 11.3988C17.3608 11.3988 17.1409 11.3149 16.9731 11.1471L14.1241 8.29803C13.7887 7.96268 13.7887 7.41852 14.1241 7.08282C14.4598 6.74713 15.0039 6.74713 15.3396 7.08282L18.1886 9.93185C18.524 10.2672 18.524 10.8114 18.1886 11.1471C18.0208 11.3149 17.8009 11.3988 17.5807 11.3988Z" fill="#252525"/>
<path d="M26.5 11.3232C26.2801 11.3232 26.0606 11.2392 25.8927 11.0717C25.5567 10.736 25.5567 10.1922 25.8921 9.85618L28.6619 7.08469C28.9976 6.74934 29.5417 6.749 29.8774 7.08436C30.2131 7.42005 30.2131 7.96421 29.8777 8.2999L27.1079 11.0714C26.9401 11.2392 26.7202 11.3232 26.5 11.3232Z" fill="#252525"/>
</g>
<defs>
<clipPath id="clip0_5456_261">
<rect width="44" height="44" fill="white"/>
</clipPath>
</defs>
</svg>
