<svg width="44" height="45" viewBox="0 0 44 45" fill="none" xmlns="http://www.w3.org/2000/svg">
<g clip-path="url(#clip0_5456_224)">
<path d="M8.14206 26.0318C7.38435 26.4915 6.875 27.3363 6.875 28.3008C6.875 29.7547 8.03155 30.9375 9.45312 30.9375C10.5734 30.9375 11.5287 30.2026 11.8834 29.1797H18.5625C19.9841 29.1797 21.1406 30.3625 21.1406 31.8164C21.1406 33.2703 19.9841 34.4531 18.5625 34.4531H8.25C5.8807 34.4531 3.95312 36.4245 3.95312 38.8477C3.95312 41.2708 5.8807 43.2422 8.25 43.2422H16.8438C17.3184 43.2422 17.7031 42.8487 17.7031 42.3633C17.7031 41.8779 17.3184 41.4844 16.8438 41.4844H8.25C6.82842 41.4844 5.67188 40.3015 5.67188 38.8477C5.67188 37.3938 6.82842 36.2109 8.25 36.2109H18.5625C20.9318 36.2109 22.8594 34.2396 22.8594 31.8164C22.8594 29.3933 20.9318 27.4219 18.5625 27.4219H11.8834C11.6802 26.8358 11.2799 26.3446 10.7642 26.0318L17.3279 15.0177C18.3605 13.4304 18.9062 11.5808 18.9062 9.66797C18.9062 4.33705 14.6656 0 9.45312 0C4.24067 0 0 4.33705 0 9.66797C0 11.5808 0.545789 13.4304 1.57833 15.0177L8.14206 26.0318ZM9.45312 29.1797C8.97927 29.1797 8.59375 28.7854 8.59375 28.3008C8.59375 27.8162 8.97927 27.4219 9.45312 27.4219C9.92698 27.4219 10.3125 27.8162 10.3125 28.3008C10.3125 28.7854 9.92698 29.1797 9.45312 29.1797ZM9.45312 1.75781C13.7179 1.75781 17.1875 5.30631 17.1875 9.66797C17.1875 11.2384 16.7383 12.756 15.8886 14.0568C15.8819 14.0669 15.8755 14.0772 15.8693 14.0876L9.45312 24.8542C9.45312 24.8542 3.02431 14.0669 3.0177 14.0568C2.16795 12.756 1.71875 11.2384 1.71875 9.66797C1.71875 5.30631 5.18839 1.75781 9.45312 1.75781Z" fill="#252525"/>
<path d="M9.45312 14.0625C11.8224 14.0625 13.75 12.0911 13.75 9.66797C13.75 7.24482 11.8224 5.27344 9.45312 5.27344C7.08383 5.27344 5.15625 7.24482 5.15625 9.66797C5.15625 12.0911 7.08383 14.0625 9.45312 14.0625ZM9.45312 7.03125C10.8747 7.03125 12.0312 8.21408 12.0312 9.66797C12.0312 11.1219 10.8747 12.3047 9.45312 12.3047C8.03155 12.3047 6.875 11.1219 6.875 9.66797C6.875 8.21408 8.03155 7.03125 9.45312 7.03125Z" fill="#252525"/>
<path d="M34.5469 14.5898C29.3344 14.5898 25.0938 18.9269 25.0938 24.2578C25.0938 26.1737 25.6413 28.0261 26.6771 29.6151L33.2163 40.1057C32.71 40.4191 32.3173 40.9056 32.1166 41.4844H24.5781C24.1035 41.4844 23.7188 41.8779 23.7188 42.3633C23.7188 42.8487 24.1035 43.2422 24.5781 43.2422H32.1166C32.4713 44.2651 33.4265 45 34.5469 45C35.9685 45 37.125 43.8172 37.125 42.3633C37.125 41.4069 36.6246 40.568 35.8775 40.1057L42.4168 29.6151C43.4525 28.0261 44 26.1737 44 24.2578C44 18.9269 39.7593 14.5898 34.5469 14.5898ZM34.5469 43.2422C34.073 43.2422 33.6875 42.8479 33.6875 42.3633C33.6875 41.8787 34.073 41.4844 34.5469 41.4844C35.0207 41.4844 35.4062 41.8787 35.4062 42.3633C35.4062 42.8479 35.0207 43.2422 34.5469 43.2422ZM40.9823 28.6466C40.979 28.6519 34.5469 38.9704 34.5469 38.9704C34.5469 38.9704 28.1148 28.6518 28.1114 28.6466C27.2617 27.3458 26.8125 25.8282 26.8125 24.2578C26.8125 19.8962 30.2821 16.3477 34.5469 16.3477C38.8116 16.3477 42.2812 19.8962 42.2812 24.2578C42.2812 25.8282 41.8321 27.3458 40.9823 28.6466Z" fill="#252525"/>
<path d="M34.5469 19.8633C32.1776 19.8633 30.25 21.8347 30.25 24.2578C30.25 26.681 32.1776 28.6523 34.5469 28.6523C36.9162 28.6523 38.8438 26.681 38.8438 24.2578C38.8438 21.8347 36.9162 19.8633 34.5469 19.8633ZM34.5469 26.8945C33.1253 26.8945 31.9688 25.7117 31.9688 24.2578C31.9688 22.8039 33.1253 21.6211 34.5469 21.6211C35.9685 21.6211 37.125 22.8039 37.125 24.2578C37.125 25.7117 35.9685 26.8945 34.5469 26.8945Z" fill="#252525"/>
<path d="M20.7109 43.2422C21.1856 43.2422 21.5703 42.8487 21.5703 42.3633C21.5703 41.8779 21.1856 41.4844 20.7109 41.4844C20.2363 41.4844 19.8516 41.8779 19.8516 42.3633C19.8516 42.8487 20.2363 43.2422 20.7109 43.2422Z" fill="#252525"/>
</g>
<defs>
<clipPath id="clip0_5456_224">
<rect width="44" height="45" fill="white"/>
</clipPath>
</defs>
</svg>
