<svg width="16" height="16" viewBox="0 0 16 16" fill="none" xmlns="http://www.w3.org/2000/svg">
<path d="M15.343 2.12714H0.657031C0.29475 2.12714 0 2.42192 0 2.7842V8.93192C0 9.29423 0.29475 9.58895 0.657031 9.58895H15.343C15.7053 9.58895 16 9.2942 16 8.93192V2.7842C16 2.42192 15.7053 2.12714 15.343 2.12714ZM5.31941 5.08157L4.87441 5.52657L5.2585 6.59423C5.34613 6.83779 5.21972 7.1062 4.97622 7.19379C4.92381 7.21267 4.87025 7.22161 4.81759 7.22161C4.62553 7.22161 4.44537 7.10264 4.37663 6.91151L4.14191 6.25907L3.93053 6.47045V6.90207C3.93053 7.16089 3.72072 7.3707 3.46191 7.3707C3.20309 7.3707 2.99328 7.16089 2.99328 6.90207V6.74495H2.82031C2.5615 6.74495 2.35169 6.53514 2.35169 6.27632C2.35169 6.01751 2.5615 5.8077 2.82031 5.8077H3.26781L3.47919 5.59632L2.82675 5.3616C2.58322 5.27398 2.45681 5.00557 2.54447 4.76204C2.63209 4.51851 2.90047 4.39207 3.14403 4.47976L4.21169 4.86386L4.65669 4.41885C4.83966 4.23589 5.13641 4.23589 5.31941 4.41885C5.50241 4.60182 5.50241 4.89857 5.31941 5.08157ZM13.489 7.05785H7.83503C7.57622 7.05785 7.36641 6.84804 7.36641 6.58923C7.36641 6.33042 7.57622 6.1206 7.83503 6.1206H13.489C13.7478 6.1206 13.9577 6.33042 13.9577 6.58923C13.9577 6.84804 13.7479 7.05785 13.489 7.05785ZM13.489 5.38929H10.7524C10.4936 5.38929 10.2837 5.17948 10.2837 4.92067C10.2837 4.66185 10.4936 4.45204 10.7524 4.45204H13.489C13.7478 4.45204 13.9577 4.66185 13.9577 4.92067C13.9577 5.17948 13.7479 5.38929 13.489 5.38929Z" fill="#252525"/>
<path d="M2.99609 10.4766L12.8695 13.8419C12.9303 13.8626 12.9938 13.8729 13.0573 13.8729C13.1517 13.8729 13.2459 13.8501 13.3306 13.8052C13.472 13.7303 13.5775 13.5987 13.6198 13.4443L14.4336 10.4766H2.99609Z" fill="#252525"/>
</svg>
