<svg width="16" height="16" viewBox="0 0 16 16" fill="none" xmlns="http://www.w3.org/2000/svg">
<path d="M8.00065 0.833344C6.58322 0.833344 5.19762 1.25366 4.01907 2.04114C2.84051 2.82863 1.92195 3.94791 1.37952 5.25745C0.83709 6.56698 0.695166 8.00796 0.971693 9.39816C1.24822 10.7884 1.93078 12.0653 2.93306 13.0676C3.93533 14.0699 5.21231 14.7524 6.60251 15.029C7.9927 15.3055 9.43368 15.1636 10.7432 14.6211C12.0528 14.0787 13.172 13.1601 13.9595 11.9816C14.747 10.803 15.1673 9.41744 15.1673 8.00001C15.1652 6.09994 14.4095 4.2783 13.0659 2.93475C11.7224 1.5912 9.90072 0.835461 8.00065 0.833344ZM1.83399 8.00001C1.8352 7.30958 1.95332 6.62434 2.18332 5.97334C2.59665 8.98001 5.23399 9.23401 5.34732 9.71334C5.40983 10.2532 5.42544 10.7975 5.39399 11.34C5.44065 12.2667 6.72065 12.28 7.21399 13.0133C7.38738 13.3607 7.45484 13.7513 7.40799 14.1367C5.88307 13.9878 4.46799 13.2772 3.43782 12.143C2.40765 11.0089 1.836 9.53218 1.83399 8.00001ZM9.67399 13.9333C10.128 12.5113 11.4913 12.0293 11.63 11.2073C11.7413 10.548 10.8747 10.2073 10.0967 10.1147C9.31865 10.022 9.43799 9.21801 8.88932 8.64801C8.34065 8.07801 7.98332 8.10934 7.21265 8.20601C6.44199 8.30268 5.78265 8.23934 5.56732 7.76534C5.35199 7.29134 5.62665 7.06468 5.05999 6.47734C4.98349 6.40404 4.92853 6.31118 4.90108 6.20884C4.87363 6.1065 4.87473 5.9986 4.90428 5.89685C4.93382 5.7951 4.99067 5.70338 5.06866 5.63166C5.14665 5.55994 5.24279 5.51095 5.34665 5.49001C5.74665 5.39334 6.45799 6.09001 6.87465 6.00801C8.12932 5.74934 6.62532 3.29201 8.51065 2.67468C8.85675 2.55646 9.14213 2.30631 9.30465 1.97868C10.3622 2.20956 11.34 2.71549 12.1393 3.44534C12.372 3.97977 12.4551 4.56734 12.38 5.14534C12.1287 5.92334 11.4953 6.48334 12.186 7.75601C12.9067 9.08534 13.3513 9.26601 13.6753 8.90001C13.802 8.76089 13.9606 8.65453 14.1373 8.59001C14.0169 9.82618 13.5266 10.9973 12.7303 11.9505C11.9341 12.9038 10.869 13.5948 9.67399 13.9333Z" fill="#252525"/>
</svg>
