<svg width="17" height="17" viewBox="0 0 17 17" fill="none" xmlns="http://www.w3.org/2000/svg">
<path d="M7.4375 12.2188H9.5625V15.9375H7.4375V12.2188Z" fill="#252525"/>
<path d="M15.4062 14.875H14.3438V4.25C14.3438 3.93125 14.1313 3.71875 13.8125 3.71875H13.2812V1.59375C13.2812 1.275 13.0688 1.0625 12.75 1.0625H4.25C3.93125 1.0625 3.71875 1.275 3.71875 1.59375V3.71875H3.1875C2.86875 3.71875 2.65625 3.93125 2.65625 4.25V14.875H1.59375C1.275 14.875 1.0625 15.0875 1.0625 15.4062C1.0625 15.725 1.275 15.9375 1.59375 15.9375H6.375V11.6875C6.375 11.3687 6.5875 11.1562 6.90625 11.1562H10.0938C10.4125 11.1562 10.625 11.3687 10.625 11.6875V15.9375H15.4062C15.725 15.9375 15.9375 15.725 15.9375 15.4062C15.9375 15.0875 15.725 14.875 15.4062 14.875ZM11.6875 5.3125C12.0063 5.3125 12.2188 5.525 12.2188 5.84375V6.90625C12.2188 7.225 12.0063 7.4375 11.6875 7.4375C11.3687 7.4375 11.1562 7.225 11.1562 6.90625V5.84375C11.1562 5.525 11.3687 5.3125 11.6875 5.3125ZM5.3125 13.2812C5.3125 13.6 5.1 13.8125 4.78125 13.8125C4.4625 13.8125 4.25 13.6 4.25 13.2812V12.2188C4.25 11.9 4.4625 11.6875 4.78125 11.6875C5.1 11.6875 5.3125 11.9 5.3125 12.2188V13.2812ZM5.84375 10.0938C5.84375 10.4125 5.63125 10.625 5.3125 10.625C4.99375 10.625 4.78125 10.4125 4.78125 10.0938V9.03125C4.78125 8.7125 4.99375 8.5 5.3125 8.5C5.63125 8.5 5.84375 8.7125 5.84375 9.03125V10.0938ZM5.84375 6.90625C5.84375 7.225 5.63125 7.4375 5.3125 7.4375C4.99375 7.4375 4.78125 7.225 4.78125 6.90625V5.84375C4.78125 5.525 4.99375 5.3125 5.3125 5.3125C5.63125 5.3125 5.84375 5.525 5.84375 5.84375V6.90625ZM6.375 4.78125C6.05625 4.78125 5.84375 4.56875 5.84375 4.25V3.1875C5.84375 2.86875 6.05625 2.65625 6.375 2.65625C6.69375 2.65625 6.90625 2.86875 6.90625 3.1875V4.25C6.90625 4.56875 6.69375 4.78125 6.375 4.78125ZM7.96875 10.0938C7.96875 10.4125 7.75625 10.625 7.4375 10.625C7.11875 10.625 6.90625 10.4125 6.90625 10.0938V9.03125C6.90625 8.7125 7.11875 8.5 7.4375 8.5C7.75625 8.5 7.96875 8.7125 7.96875 9.03125V10.0938ZM7.96875 6.90625C7.96875 7.225 7.75625 7.4375 7.4375 7.4375C7.11875 7.4375 6.90625 7.225 6.90625 6.90625V5.84375C6.90625 5.525 7.11875 5.3125 7.4375 5.3125C7.75625 5.3125 7.96875 5.525 7.96875 5.84375V6.90625ZM8.5 4.78125C8.18125 4.78125 7.96875 4.56875 7.96875 4.25V3.1875C7.96875 2.86875 8.18125 2.65625 8.5 2.65625C8.81875 2.65625 9.03125 2.86875 9.03125 3.1875V4.25C9.03125 4.56875 8.81875 4.78125 8.5 4.78125ZM10.0938 10.0938C10.0938 10.4125 9.88125 10.625 9.5625 10.625C9.24375 10.625 9.03125 10.4125 9.03125 10.0938V9.03125C9.03125 8.7125 9.24375 8.5 9.5625 8.5C9.88125 8.5 10.0938 8.7125 10.0938 9.03125V10.0938ZM10.0938 6.90625C10.0938 7.225 9.88125 7.4375 9.5625 7.4375C9.24375 7.4375 9.03125 7.225 9.03125 6.90625V5.84375C9.03125 5.525 9.24375 5.3125 9.5625 5.3125C9.88125 5.3125 10.0938 5.525 10.0938 5.84375V6.90625ZM10.625 4.78125C10.3062 4.78125 10.0938 4.56875 10.0938 4.25V3.1875C10.0938 2.86875 10.3062 2.65625 10.625 2.65625C10.9438 2.65625 11.1562 2.86875 11.1562 3.1875V4.25C11.1562 4.56875 10.9438 4.78125 10.625 4.78125ZM11.1562 10.0938V9.03125C11.1562 8.7125 11.3687 8.5 11.6875 8.5C12.0063 8.5 12.2188 8.7125 12.2188 9.03125V10.0938C12.2188 10.4125 12.0063 10.625 11.6875 10.625C11.3687 10.625 11.1562 10.4125 11.1562 10.0938ZM12.75 13.2812C12.75 13.6 12.5375 13.8125 12.2188 13.8125C11.9 13.8125 11.6875 13.6 11.6875 13.2812V12.2188C11.6875 11.9 11.9 11.6875 12.2188 11.6875C12.5375 11.6875 12.75 11.9 12.75 12.2188V13.2812Z" fill="#252525"/>
</svg>
