<svg width="14" height="14" viewBox="0 0 14 14" fill="none" xmlns="http://www.w3.org/2000/svg">
<g clip-path="url(#clip0_5456_691)">
<path d="M13.0051 0.874817H0.994924C0.444873 0.874817 0 1.31969 0 1.86974C0 2.41979 0.444873 2.86466 0.994924 2.86466H13.0051C13.5551 2.86466 14 2.41979 14 1.86974C14 1.31969 13.5551 0.874817 13.0051 0.874817Z" fill="#252525"/>
<path d="M14 8.71056C14 8.1605 13.5551 7.71564 13.0051 7.71564H0.994924C0.444873 7.71564 0 8.1605 0 8.71056C0 9.2606 0.444873 9.70548 0.994924 9.70548H13.0051C13.5551 9.70548 14 9.25918 14 8.71056Z" fill="#252525"/>
<path d="M0.994924 6.28434H10.8788C11.4288 6.28434 11.8737 5.83947 11.8737 5.28942C11.8737 4.73937 11.4288 4.29449 10.8788 4.29449H0.994924C0.444873 4.29449 0 4.73937 0 5.28942C0 5.83947 0.444873 6.28434 0.994924 6.28434Z" fill="#252525"/>
<path d="M8.41848 12.1302C8.41848 11.5802 7.9736 11.1353 7.42355 11.1353H0.994924C0.444873 11.1353 0 11.5802 0 12.1302C0 12.6803 0.444873 13.1252 0.994924 13.1252H7.42355C7.9736 13.1252 8.41848 12.6803 8.41848 12.1302Z" fill="#252525"/>
</g>
<defs>
<clipPath id="clip0_5456_691">
<rect width="14" height="14" fill="white"/>
</clipPath>
</defs>
</svg>
