<svg width="22" height="22" viewBox="0 0 22 22" fill="none" xmlns="http://www.w3.org/2000/svg">
<path d="M11.0001 19.69C10.6605 19.6942 10.3235 19.6307 10.0087 19.5032C9.69394 19.3757 9.40771 19.1868 9.16673 18.9475L2.79589 12.5308C2.03804 11.7901 1.48705 10.864 1.19762 9.84455C0.908178 8.82509 0.890347 7.74766 1.14589 6.71917C1.41692 5.72556 1.9386 4.81821 2.66095 4.08408C3.38329 3.34995 4.28208 2.81365 5.27118 2.52658C6.26028 2.23951 7.30653 2.2113 8.30967 2.44463C9.3128 2.67797 10.2392 3.16505 11.0001 3.85918C11.7609 3.16505 12.6873 2.67797 13.6904 2.44463C14.6936 2.2113 15.7398 2.23951 16.7289 2.52658C17.718 2.81365 18.6168 3.34995 19.3392 4.08408C20.0615 4.81821 20.5832 5.72556 20.8542 6.71917C21.1149 7.75678 21.0971 8.84482 20.8025 9.87333C20.508 10.9018 19.9472 11.8344 19.1767 12.5767L12.7601 18.9933C12.2841 19.4421 11.6542 19.6914 11.0001 19.69ZM6.93923 3.66668C5.94753 3.66668 4.98258 3.98832 4.18923 4.58334C3.35037 5.19878 2.74586 6.0813 2.47506 7.08584C2.27756 7.88863 2.29563 8.72934 2.52742 9.52291C2.75921 10.3165 3.19651 11.0347 3.79506 11.605L10.2117 18.0217C10.4333 18.2422 10.7332 18.366 11.0459 18.366C11.3585 18.366 11.6585 18.2422 11.8801 18.0217L18.2967 11.6508C18.8878 11.0652 19.313 10.3333 19.5288 9.52969C19.7446 8.72609 19.7433 7.87962 19.5251 7.07667C19.2548 6.07678 18.6538 5.19792 17.8201 4.58334C16.8727 3.89079 15.7 3.57903 14.5338 3.70973C13.3677 3.84044 12.293 4.40409 11.5226 5.28918C11.4543 5.35846 11.373 5.41349 11.2833 5.45105C11.1936 5.48861 11.0973 5.50795 11.0001 5.50795C10.9028 5.50795 10.8065 5.48861 10.7168 5.45105C10.6271 5.41349 10.5458 5.35846 10.4776 5.28918C10.0394 4.77994 9.49635 4.37134 8.88567 4.09131C8.27499 3.81128 7.61105 3.66644 6.93923 3.66668Z" fill="white"/>
</svg>
