<svg width="20" height="14" viewBox="0 0 20 14" fill="none" xmlns="http://www.w3.org/2000/svg">
<path d="M12.7073 1.47656H6.88025V12.3333H12.7073V1.47656Z" fill="#FF5F00"/>
<path d="M7.48043 6.9057C7.47897 4.78748 8.33139 2.78613 9.79207 1.4783C7.31059 -0.746345 3.74709 -0.422305 1.6059 2.22269C-0.535299 4.86769 -0.535299 8.94562 1.6059 11.5906C3.74709 14.2356 7.31059 14.5597 9.79207 12.335C8.33092 11.0268 7.47845 9.02459 7.48043 6.9057Z" fill="#EB001B"/>
<path d="M19.0475 11.6938V11.0493H19.1612V10.916H18.8907V11.0493H18.9975V11.6938H19.0475ZM19.5725 11.6938V10.916H19.4907L19.3952 11.4716L19.2998 10.916H19.218V11.6938H19.2771V11.1049L19.3657 11.6105H19.4271L19.5157 11.1049V11.6938H19.5725Z" fill="#F79E1B"/>
<path d="M19.585 6.90592C19.585 9.54931 18.2618 11.9606 16.1775 13.1158C14.0933 14.2709 11.6137 13.9671 9.79207 12.3333C11.2521 11.0244 12.1046 9.0233 12.1046 6.90497C12.1046 4.78663 11.2521 2.78555 9.79207 1.47661C11.6137 -0.157152 14.0933 -0.460979 16.1775 0.694163C18.2618 1.84931 19.585 4.26062 19.585 6.90401V6.90592Z" fill="#F79E1B"/>
</svg>
