<svg width="21" height="18" viewBox="0 0 21 18" fill="none" xmlns="http://www.w3.org/2000/svg">
<path d="M10.0335 17.4017C9.69393 17.4059 9.35692 17.3424 9.04215 17.2149C8.72738 17.0874 8.44116 16.8985 8.20017 16.6592L1.82934 10.2426C1.07148 9.50181 0.5205 8.57575 0.231063 7.55628C-0.0583752 6.53682 -0.0762062 5.45939 0.179339 4.43091C0.450364 3.43729 0.972048 2.52994 1.69439 1.79581C2.41674 1.06168 3.31553 0.525381 4.30463 0.238312C5.29373 -0.0487567 6.33998 -0.0769736 7.34312 0.156365C8.34625 0.389705 9.27264 0.876778 10.0335 1.57091C10.7944 0.876778 11.7208 0.389705 12.7239 0.156365C13.727 -0.0769736 14.7733 -0.0487567 15.7624 0.238312C16.7515 0.525381 17.6503 1.06168 18.3726 1.79581C19.095 2.52994 19.6166 3.43729 19.8877 4.43091C20.1484 5.46851 20.1305 6.55655 19.836 7.58506C19.5414 8.61357 18.9806 9.5461 18.2102 10.2884L11.7935 16.7051C11.3175 17.1538 10.6877 17.4032 10.0335 17.4017ZM5.97267 1.37841C4.98098 1.37841 4.01603 1.70005 3.22267 2.29507C2.38381 2.91051 1.7793 3.79303 1.50851 4.79757C1.31101 5.60036 1.32907 6.44108 1.56087 7.23464C1.79266 8.02821 2.22995 8.74647 2.82851 9.31674L9.24517 15.7334C9.46677 15.954 9.76669 16.0778 10.0793 16.0778C10.392 16.0778 10.6919 15.954 10.9135 15.7334L17.3302 9.36257C17.9213 8.77698 18.3464 8.04502 18.5622 7.24142C18.778 6.43782 18.7768 5.59135 18.5585 4.78841C18.2882 3.78852 17.6872 2.90965 16.8535 2.29507C15.9062 1.60252 14.7334 1.29076 13.5673 1.42146C12.4011 1.55217 11.3265 2.11582 10.556 3.00091C10.4878 3.0702 10.4064 3.12522 10.3167 3.16278C10.227 3.20034 10.1308 3.21968 10.0335 3.21968C9.93626 3.21968 9.83998 3.20034 9.75028 3.16278C9.66058 3.12522 9.57924 3.0702 9.51101 3.00091C9.0728 2.49167 8.5298 2.08307 7.91912 1.80304C7.30844 1.52301 6.64449 1.37817 5.97267 1.37841Z" fill="#959595"/>
</svg>
