<svg width="17" height="17" viewBox="0 0 17 17" fill="none" xmlns="http://www.w3.org/2000/svg">
<path d="M6.60244 6.57819C6.6455 7.49512 6.81776 8.38516 7.11385 9.06167C6.14485 8.60228 5.43963 7.67816 5.28711 6.57819H6.60244Z" fill="#252525"/>
<path d="M7.11385 3.19562C6.81776 3.87388 6.6455 4.764 6.60244 5.68094H5.28711C5.43963 4.57913 6.14485 3.65676 7.11385 3.19562Z" fill="#252525"/>
<path d="M7.5 6.57819H9.49901C9.41109 8.32418 8.82969 9.37754 8.49951 9.37754C8.16934 9.37754 7.58794 8.32418 7.5 6.57819Z" fill="#252525"/>
<path d="M9.49901 5.68092H7.5C7.58794 3.93309 8.16934 2.87982 8.49951 2.87982C8.82969 2.87982 9.41109 3.93309 9.49901 5.68092Z" fill="#252525"/>
<path d="M10.3981 6.57819H11.7135C11.5609 7.67816 10.8557 8.60228 9.88672 9.06167C10.1828 8.38516 10.3551 7.49512 10.3981 6.57819Z" fill="#252525"/>
<path d="M11.7135 5.68094H10.3981C10.3551 4.764 10.1828 3.87388 9.88672 3.19562C10.8557 3.65676 11.5609 4.57913 11.7135 5.68094Z" fill="#252525"/>
<path d="M13.9064 0.424988H3.09312C2.4561 0.424988 1.9375 0.941767 1.9375 1.57885V15.4211C1.9375 16.0582 2.4561 16.575 3.09312 16.575H13.9064C14.5435 16.575 15.0621 16.0582 15.0621 15.4211V1.57885C15.0621 0.941767 14.5435 0.424988 13.9064 0.424988ZM11.6867 15.0174H5.31285C5.06522 15.0174 4.86424 14.8165 4.86424 14.5688C4.86424 14.3194 5.06522 14.1202 5.31285 14.1202H11.6867C11.9344 14.1202 12.1353 14.3194 12.1353 14.5688C12.1353 14.8165 11.9344 15.0174 11.6867 15.0174ZM6.88299 12.2701C6.88299 12.0225 7.08397 11.8215 7.3316 11.8215H9.66797C9.9156 11.8215 10.1166 12.0225 10.1166 12.2701C10.1166 12.5178 9.9156 12.7187 9.66797 12.7187H7.3316C7.08397 12.7187 6.88299 12.5178 6.88299 12.2701ZM8.49978 10.2747C6.21366 10.2747 4.35462 8.41561 4.35462 6.12953C4.35462 3.84337 6.21366 1.9826 8.49978 1.9826C10.7859 1.9826 12.645 3.84337 12.645 6.12953C12.645 8.41561 10.7859 10.2747 8.49978 10.2747Z" fill="#252525"/>
</svg>
