<svg width="34" height="11" viewBox="0 0 34 11" fill="none" xmlns="http://www.w3.org/2000/svg">
<path d="M16.8791 6.29448H16.6669V0H13.6956V10.6522H16.2172C16.8794 10.6522 17.4812 10.2129 17.7586 9.52703L19.8502 4.35769H20.0625V10.6522H23.0336V0H20.512C19.8498 0 19.248 0.439256 18.9706 1.12515L16.8791 6.29448Z" fill="#319B42"/>
<path d="M7.44223 1.39993L6.1781 6.29448H5.96123L4.6971 1.39993C4.48292 0.570861 3.80351 0 3.03083 0H0V10.6522H3.0348V4.35769H3.25154L4.98575 10.6522H7.15358L8.88778 4.35769H9.10453V10.6522H12.1393V0H9.10849C8.33594 0 7.65641 0.570861 7.44223 1.39993Z" fill="#319B42"/>
<path d="M24.2786 4.97119V10.6524H27.3039V7.33841H30.5577C31.9711 7.33841 33.1703 6.34936 33.6166 4.97119H24.2786Z" fill="#319B42"/>
<mask id="mask0_36_494" style="mask-type:luminance" maskUnits="userSpaceOnUse" x="23" y="0" width="12" height="5">
<path d="M30.7388 0.0302734H23.9951C24.4045 2.35326 26.3537 4.11409 28.6993 4.11409H33.9362C33.979 3.8942 34.0017 3.66655 34.0017 3.43354C34.0017 1.55394 32.5408 0.0302734 30.7388 0.0302734Z" fill="url(#paint0_linear_36_494)"/>
</mask>
<g mask="url(#mask0_36_494)">
<path d="M30.7388 0.0302734H23.9951C24.4045 2.35326 26.3537 4.11409 28.6993 4.11409H33.9362C33.979 3.8942 34.0017 3.66655 34.0017 3.43354C34.0017 1.55394 32.5408 0.0302734 30.7388 0.0302734Z" fill="url(#paint1_linear_36_494)"/>
</g>
<defs>
<linearGradient id="paint0_linear_36_494" x1="23.9951" y1="204.221" x2="1024.66" y2="204.221" gradientUnits="userSpaceOnUse">
<stop stop-color="#00A3E1"/>
<stop offset="0.592667" stop-color="#008CD8"/>
<stop offset="1" stop-color="#0076CF"/>
</linearGradient>
<linearGradient id="paint1_linear_36_494" x1="23.9951" y1="204.221" x2="1024.66" y2="204.221" gradientUnits="userSpaceOnUse">
<stop stop-color="#00A3E1"/>
<stop offset="0.592667" stop-color="#008CD8"/>
<stop offset="1" stop-color="#0076CF"/>
</linearGradient>
</defs>
</svg>
