<svg width="18" height="18" viewBox="0 0 18 18" fill="none" xmlns="http://www.w3.org/2000/svg">
<path d="M9.00002 16.4314C8.92611 16.4318 8.85288 16.4179 8.78462 16.3905C8.71636 16.3632 8.65445 16.323 8.60252 16.2723L4.28252 12.1066C3.34831 11.2067 2.71189 10.0598 2.45378 8.81105C2.19566 7.56229 2.32745 6.26776 2.83246 5.09124C3.33747 3.91472 4.19302 2.90906 5.29087 2.20151C6.38872 1.49395 7.67953 1.11628 9.00002 1.11628C10.3205 1.11628 11.6113 1.49395 12.7092 2.20151C13.807 2.90906 14.6626 3.91472 15.1676 5.09124C15.6726 6.26776 15.8044 7.56229 15.5463 8.81105C15.2881 10.0598 14.6517 11.2067 13.7175 12.1066L9.39752 16.2723C9.34558 16.323 9.28367 16.3632 9.21541 16.3905C9.14715 16.4179 9.07392 16.4318 9.00002 16.4314ZM9.00002 2.2058C7.90289 2.20654 6.83061 2.52082 5.91863 3.10893C5.00665 3.69704 4.2959 4.5326 3.87615 5.51005C3.4564 6.4875 3.3465 7.56299 3.56033 8.60064C3.77415 9.63829 4.30212 10.5916 5.07752 11.34L9.00002 15.1224L12.9225 11.34C13.6979 10.5916 14.2259 9.63829 14.4397 8.60064C14.6535 7.56299 14.5436 6.4875 14.1239 5.51005C13.7041 4.5326 12.9934 3.69704 12.0814 3.10893C11.1694 2.52082 10.0971 2.20654 9.00002 2.2058Z" fill="#252525"/>
<path d="M9 9.9442C8.44374 9.9442 7.89997 9.78514 7.43746 9.48713C6.97495 9.18913 6.61446 8.76556 6.40159 8.27C6.18872 7.77444 6.13302 7.22913 6.24154 6.70305C6.35006 6.17696 6.61793 5.69372 7.01126 5.31443C7.4046 4.93514 7.90574 4.67685 8.45131 4.5722C8.99688 4.46756 9.56238 4.52126 10.0763 4.72653C10.5902 4.9318 11.0295 5.27941 11.3385 5.72541C11.6476 6.1714 11.8125 6.69575 11.8125 7.23214C11.8125 7.95142 11.5162 8.64125 10.9887 9.14985C10.4613 9.65846 9.74592 9.9442 9 9.9442ZM9 5.60491C8.66625 5.60491 8.33998 5.70035 8.06248 5.87915C7.78497 6.05795 7.56868 6.31209 7.44096 6.60943C7.31323 6.90677 7.27981 7.23395 7.34493 7.5496C7.41004 7.86525 7.57076 8.1552 7.80676 8.38277C8.04276 8.61034 8.34344 8.76532 8.67079 8.82811C8.99813 8.8909 9.33743 8.85867 9.64578 8.73551C9.95413 8.61235 10.2177 8.40378 10.4031 8.13618C10.5885 7.86859 10.6875 7.55398 10.6875 7.23214C10.6875 6.80057 10.5097 6.38668 10.1932 6.08152C9.87678 5.77635 9.44755 5.60491 9 5.60491Z" fill="#252525"/>
</svg>
