<svg width="16" height="16" viewBox="0 0 16 16" fill="none" xmlns="http://www.w3.org/2000/svg">
<g clip-path="url(#clip0_5456_659)">
<path d="M15.9715 14.3426L14.5541 8.56696C14.4478 8.17722 14.058 7.92916 13.6683 8.00006C13.6683 8.00006 10.8337 8.56696 10.7628 8.56696C10.2313 9.55909 9.66436 10.5158 9.13287 11.4016C8.88484 11.7914 8.45964 12.0394 7.99903 12.0394C7.5384 12.0394 7.11321 11.7914 6.86517 11.4016C6.05021 10.0552 5.16438 8.49609 4.49115 7.04333L1.90453 8.0709C1.69193 8.17722 1.51477 8.35436 1.4439 8.60242L0.0265749 14.3071C-0.0442914 14.5552 0.0265749 14.8386 0.239174 15.0512C0.41634 15.2284 0.699805 15.2993 0.98327 15.2284L4.98722 14.1654C5.12895 14.13 5.27068 14.13 5.41241 14.1654L10.5502 15.8308C10.6565 15.8662 10.7628 15.8662 10.9046 15.8662L15.3337 15.2993C15.5463 15.2638 15.7589 15.1575 15.8652 14.9804C15.9715 14.8032 16.0423 14.5552 15.9715 14.3426Z" fill="#252525"/>
<path d="M7.99842 11.0118C8.10472 11.0118 8.17559 10.941 8.24643 10.8701C9.06139 9.55907 11.5417 5.30709 11.5417 3.67717C11.5417 1.72834 9.94722 0.13385 7.99839 0.13385C6.04957 0.13385 4.45508 1.72834 4.45508 3.67717C4.45508 5.30709 6.9354 9.55907 7.75036 10.8701C7.82126 10.941 7.92753 11.0118 7.99842 11.0118ZM6.26217 3.64173C6.26217 2.72047 7.00627 1.94094 7.96296 1.94094C8.88422 1.94094 9.66375 2.68504 9.66375 3.64173C9.66375 4.56299 8.91966 5.34252 7.96296 5.34252C7.00627 5.34252 6.26217 4.59843 6.26217 3.64173Z" fill="#252525"/>
</g>
<defs>
<clipPath id="clip0_5456_659">
<rect width="16" height="16" fill="white"/>
</clipPath>
</defs>
</svg>
