<svg width="30" height="11" viewBox="0 0 30 11" fill="none" xmlns="http://www.w3.org/2000/svg">
<path d="M11.2723 0.164154L7.38694 10.7247H4.84468L2.92599 2.29816C2.83006 1.8057 2.68616 1.58682 2.35039 1.36795C1.77478 1.03964 0.815441 0.656616 0 0.492462L0.0479671 0.164154H4.12517C4.65281 0.164154 5.13248 0.54718 5.22842 1.25851L6.23572 7.38693L8.73001 0.218872H11.2723V0.164154ZM21.2015 7.2775C21.2015 4.48688 17.8438 4.32272 17.8438 3.11893C17.8438 2.7359 18.1795 2.35288 18.8511 2.24344C19.1868 2.18872 20.1462 2.134 21.2015 2.7359L21.6332 0.492462C21.0576 0.27359 20.3381 0 19.3787 0C17.0283 0 15.3495 1.42267 15.3495 3.50195C15.3495 5.03406 16.5487 5.85483 17.46 6.34729C18.3714 6.83975 18.7072 7.16806 18.7072 7.66052C18.7072 8.37186 17.9877 8.70017 17.2682 8.70017C16.069 8.70017 15.3495 8.31714 14.8218 8.04355L14.3901 10.3417C14.9657 10.6153 15.973 10.8889 17.0283 10.8889C19.5226 10.8889 21.1535 9.46622 21.2015 7.2775ZM27.4372 10.7247H29.6437L27.725 0.164154H25.6624C25.1827 0.164154 24.799 0.492462 24.6551 0.930207L21.0576 10.7247H23.5518L24.0315 9.13791H27.1014L27.4372 10.7247ZM24.751 7.00391L25.9982 3.06421L26.7177 7.00391H24.751ZM14.6779 0.164154L12.7113 10.7247H10.3129L12.2796 0.164154H14.6779Z" fill="#1A1F71"/>
</svg>
